<svg xmlns="http://www.w3.org/2000/svg" xmlns:xlink="http://www.w3.org/1999/xlink" width="160" zoomAndPan="magnify" viewBox="0 0 120 119.999999" height="160" preserveAspectRatio="xMidYMid meet" version="1.0"><defs><g/><clipPath id="385cff0e21"><path d="M 6 0 L 114 0 C 117.3125 0 120 2.6875 120 6 L 120 114 C 120 117.3125 117.3125 120 114 120 L 6 120 C 2.6875 120 0 117.3125 0 114 L 0 6 C 0 2.6875 2.6875 0 6 0 Z M 6 0 " clip-rule="nonzero"/></clipPath><clipPath id="ab76d343f7"><path d="M 0 0 L 120 0 L 120 120 L 0 120 Z M 0 0 " clip-rule="nonzero"/></clipPath><clipPath id="dfdaa701e1"><path d="M 6 0 L 114 0 C 117.3125 0 120 2.6875 120 6 L 120 114 C 120 117.3125 117.3125 120 114 120 L 6 120 C 2.6875 120 0 117.3125 0 114 L 0 6 C 0 2.6875 2.6875 0 6 0 Z M 6 0 " clip-rule="nonzero"/></clipPath><clipPath id="27c78cb82c"><rect x="0" width="120" y="0" height="120"/></clipPath></defs><g clip-path="url(#385cff0e21)"><g transform="matrix(1, 0, 0, 1, 0, 0.000000000000001943)"><g clip-path="url(#27c78cb82c)"><g clip-path="url(#ab76d343f7)"><g clip-path="url(#dfdaa701e1)"><rect x="-26.4" width="172.8" fill="#0d0d16" height="172.799998" y="-26.4" fill-opacity="1"/></g></g></g></g></g><g fill="#ffffff" fill-opacity="1"><g transform="translate(0.562501, 75.250138)"><g><path d="M 12.46875 -46.40625 L 12.46875 -4.5 L 34.8125 -4.5 L 34.8125 0 L 7.015625 0 L 7.015625 -46.40625 Z M 12.46875 -46.40625 "/></g></g></g><g fill="#2effa0" fill-opacity="1"><g transform="translate(38.015624, 75.250138)"><g><path d="M 15.328125 0.671875 C 13.023438 0.671875 10.910156 0.328125 8.984375 -0.359375 C 7.054688 -1.046875 5.429688 -1.984375 4.109375 -3.171875 C 2.785156 -4.359375 1.816406 -5.671875 1.203125 -7.109375 L 4.03125 -10.828125 L 4.828125 -10.828125 C 5.753906 -8.835938 7.117188 -7.265625 8.921875 -6.109375 C 10.734375 -4.953125 12.867188 -4.375 15.328125 -4.375 C 17.316406 -4.375 18.9375 -4.695312 20.1875 -5.34375 C 21.4375 -5.988281 22.375 -7.054688 23 -8.546875 C 23.625 -10.046875 23.9375 -12.0625 23.9375 -14.59375 L 23.9375 -46.40625 L 29.359375 -46.40625 L 29.359375 -14.5 C 29.359375 -9.257812 28.1875 -5.421875 25.84375 -2.984375 C 23.507812 -0.546875 20.003906 0.671875 15.328125 0.671875 Z M 15.328125 0.671875 "/></g></g></g><g fill="#ffffff" fill-opacity="1"><g transform="translate(73.980465, 75.250138)"><g><path d="M 7.015625 0 L 7.015625 -46.40625 L 12.46875 -46.40625 L 12.46875 -26.125 L 13.453125 -26.125 L 32.5 -46.40625 L 38.46875 -46.40625 L 38.46875 -45.609375 L 18.375 -23.9375 L 40.046875 -0.796875 L 40.046875 0 L 33.796875 0 L 13.453125 -21.359375 L 12.46875 -21.359375 L 12.46875 0 Z M 7.015625 0 "/></g></g></g><path stroke-linecap="butt" transform="matrix(0.75, 0.000000000000000074, -0.000000000000000074, 0.75, 6.51242, 84.495626)" fill="none" stroke-linejoin="miter" d="M -0.000934463 2.000623 L 143.983448 2.000623 " stroke="#2effa0" stroke-width="4" stroke-opacity="1" stroke-miterlimit="4"/></svg>